<svg id="Layer_1" data-name="Layer 1" xmlns="http://www.w3.org/2000/svg" viewBox="0 0 200 200"><defs><style>.cls-1{fill:#231f20;}</style></defs><title>Wondicon - UI (Free)</title><path class="cls-1" d="M170.69,80H125a5,5,0,0,1-5-5V29.31a5,5,0,0,1,5-5h28.63a22.08,22.08,0,0,1,22.06,22.06V75A5,5,0,0,1,170.69,80ZM130,70h35.69V46.37a12.07,12.07,0,0,0-12.06-12.06H130Z"/><path class="cls-1" d="M153.63,175.69H100a5,5,0,0,1-5-5V100a5,5,0,0,1,5-5h70.69a5,5,0,0,1,5,5v53.63A22.08,22.08,0,0,1,153.63,175.69Zm-48.63-10h48.63a12.07,12.07,0,0,0,12.06-12.06V105H105Z"/><path class="cls-1" d="M75,175.69H46.37a22.08,22.08,0,0,1-22.06-22.06V125a5,5,0,0,1,5-5H75a5,5,0,0,1,5,5v45.69A5,5,0,0,1,75,175.69ZM34.31,130v23.63a12.07,12.07,0,0,0,12.06,12.06H70V130Z"/><path class="cls-1" d="M100,105H29.31a5,5,0,0,1-5-5V46.37A22.08,22.08,0,0,1,46.37,24.31H100a5,5,0,0,1,5,5V100A5,5,0,0,1,100,105ZM34.31,95H95V34.31H46.37A12.07,12.07,0,0,0,34.31,46.37Z"/></svg>